<svg data-name="그룹 4238" xmlns="http://www.w3.org/2000/svg" width="40" height="40" viewBox="0 0 40 40">
    <defs>
        <clipPath id="8x0uxxb7xa">
            <path data-name="사각형 3706" style="fill:none" d="M0 0h40v40H0z"/>
        </clipPath>
    </defs>
    <g data-name="그룹 4237" style="clip-path:url(#8x0uxxb7xa)">
        <path data-name="패스 2413" d="M21.743 26.78 35.2 23.174a2 2 0 0 1 .156 2.228l-3 5.2a1.995 1.995 0 0 1-1.214.932 2.1 2.1 0 0 1-.379.064 2.054 2.054 0 0 1-.414-.017 2.008 2.008 0 0 1-.725-.247z" style="fill:#00b4ff"/>
        <path data-name="패스 2414" d="M31.577 9.651c0-.01.005-.019.006-.028 0 .009-.005.018-.006.028" style="fill:#2a6efb"/>
        <path data-name="패스 2415" d="M7.008 28.5a2 2 0 0 1-1.687-1.465l-1.552-5.8a2 2 0 0 1 .423-1.83 1.9 1.9 0 0 1 .305-.281 1.984 1.984 0 0 1 .686-.338l8.791-2.355z" style="fill:#2a6efb"/>
        <path data-name="패스 2416" d="m26.027 23.562 8.79-2.355a2.008 2.008 0 0 0 1.415-2.45l-1.553-5.8a1.991 1.991 0 0 0-.62-.992 2.026 2.026 0 0 0-.661-.382 2 2 0 0 0-.4-.091z" style="fill:#2fc8b8"/>
        <path data-name="패스 2417" d="M31.33 10.376a2 2 0 0 0 .247-.725 2 2 0 0 1-.247.725" style="fill:#2a6efb"/>
        <path data-name="패스 2418" d="M26.78 18.257 23.174 4.8a2 2 0 0 1 .71-.356 2.029 2.029 0 0 1 .379-.064 2 2 0 0 1 .77.1 2.025 2.025 0 0 1 .369.167l5.2 3a2 2 0 0 1 .985 1.979c0 .009-.005.019-.006.028a1.99 1.99 0 0 1-.247.725z" style="fill:#2fc8b8"/>
        <path data-name="패스 2419" d="M23.562 13.973 11.5 7.007a2 2 0 0 1 .091-.4 2.026 2.026 0 0 1 .382-.661 1.991 1.991 0 0 1 .992-.62l5.8-1.553a1.992 1.992 0 0 1 1.169.041 2.026 2.026 0 0 1 .661.382 1.947 1.947 0 0 1 .282.3 2 2 0 0 1 .338.687z" style="fill:#6552ec"/>
        <path data-name="패스 2420" d="M28.5 32.993a2 2 0 0 1-1.465 1.686l-5.8 1.553a2.008 2.008 0 0 1-2.449-1.415l-2.355-8.79z" style="fill:#00b4ff"/>
        <path data-name="패스 2421" d="M18.257 13.22 4.8 16.827a2 2 0 0 1-.156-2.227l3-5.2a1.988 1.988 0 0 1 .856-.8 2.015 2.015 0 0 1 .359-.134 2.1 2.1 0 0 1 .379-.064 2.054 2.054 0 0 1 .414.017 1.989 1.989 0 0 1 .725.247z" style="fill:#6552ec"/>
        <path data-name="패스 2422" d="M8.67 29.625a2.006 2.006 0 0 0 .73 2.732l5.2 3a2.014 2.014 0 0 0 .56.22 1.987 1.987 0 0 0 .579.043 2.013 2.013 0 0 0 .379-.063 1.987 1.987 0 0 0 .359-.134 2.015 2.015 0 0 0 .351-.222L13.22 21.744z" style="fill:#2a6efb"/>
    </g>
</svg>
